<svg width="24" height="24" viewBox="0 0 24 24" fill="none" xmlns="http://www.w3.org/2000/svg">
<mask id="mask0_348_263" style="mask-type:alpha" maskUnits="userSpaceOnUse" x="0" y="0" width="24" height="24">
<rect width="24" height="24" fill="#D9D9D9"/>
</mask>
<g mask="url(#mask0_348_263)">
<path d="M12 21C9.48333 21 7.354 20.129 5.612 18.387C3.87067 16.6457 3 14.5167 3 12C3 9.69999 3.75 7.70399 5.25 6.01199C6.75 4.32066 8.66667 3.33333 11 3.04999C11.4167 2.99999 11.7417 3.14999 11.975 3.49999C12.2083 3.84999 12.2 4.21666 11.95 4.59999C11.6667 5.03333 11.454 5.49166 11.312 5.97499C11.1707 6.45833 11.1 6.96666 11.1 7.49999C11.1 8.99999 11.625 10.275 12.675 11.325C13.725 12.375 15 12.9 16.5 12.9C17.0167 12.9 17.5293 12.825 18.038 12.675C18.546 12.525 19 12.3167 19.4 12.05C19.75 11.8167 20.1083 11.804 20.475 12.012C20.8417 12.2207 21 12.55 20.95 13C20.7167 15.3 19.7377 17.2083 18.013 18.725C16.2877 20.2417 14.2833 21 12 21ZM12 19C13.4667 19 14.7833 18.596 15.95 17.788C17.1167 16.9793 17.9667 15.925 18.5 14.625C18.1667 14.7083 17.8333 14.775 17.5 14.825C17.1667 14.875 16.8333 14.9 16.5 14.9C14.45 14.9 12.704 14.1793 11.262 12.738C9.82067 11.296 9.1 9.54999 9.1 7.49999C9.1 7.16666 9.125 6.83333 9.175 6.49999C9.225 6.16666 9.29167 5.83333 9.375 5.49999C8.075 6.03333 7.021 6.88333 6.213 8.04999C5.40433 9.21666 5 10.5333 5 12C5 13.9333 5.68333 15.5833 7.05 16.95C8.41667 18.3167 10.0667 19 12 19Z" fill="#1B72C0"/>
</g>
</svg>
