<svg width="25" height="24" viewBox="0 0 25 24" fill="none" xmlns="http://www.w3.org/2000/svg">
<mask id="mask0_348_474" style="mask-type:alpha" maskUnits="userSpaceOnUse" x="0" y="0" width="25" height="24">
<rect x="0.5" width="24" height="24" fill="#D9D9D9"/>
</mask>
<g mask="url(#mask0_348_474)">
<path d="M14.375 22H10.625C10.375 22 10.1583 21.9167 9.975 21.75C9.79167 21.5833 9.68333 21.375 9.65 21.125L9.35 18.8C9.13333 18.7167 8.92933 18.6167 8.738 18.5C8.546 18.3833 8.35833 18.2583 8.175 18.125L6 19.025C5.76667 19.1083 5.53333 19.1167 5.3 19.05C5.06667 18.9833 4.88333 18.8417 4.75 18.625L2.9 15.4C2.76667 15.1833 2.725 14.95 2.775 14.7C2.825 14.45 2.95 14.25 3.15 14.1L5.025 12.675C5.00833 12.5583 5 12.4457 5 12.337V11.662C5 11.554 5.00833 11.4417 5.025 11.325L3.15 9.9C2.95 9.75 2.825 9.55 2.775 9.3C2.725 9.05 2.76667 8.81667 2.9 8.6L4.75 5.375C4.86667 5.14167 5.04567 4.99567 5.287 4.937C5.529 4.879 5.76667 4.89167 6 4.975L8.175 5.875C8.35833 5.74167 8.55 5.61667 8.75 5.5C8.95 5.38333 9.15 5.28333 9.35 5.2L9.65 2.875C9.68333 2.625 9.79167 2.41667 9.975 2.25C10.1583 2.08333 10.375 2 10.625 2H14.375C14.625 2 14.8417 2.08333 15.025 2.25C15.2083 2.41667 15.3167 2.625 15.35 2.875L15.65 5.2C15.8667 5.28333 16.071 5.38333 16.263 5.5C16.4543 5.61667 16.6417 5.74167 16.825 5.875L19 4.975C19.2333 4.89167 19.4667 4.88333 19.7 4.95C19.9333 5.01667 20.1167 5.15833 20.25 5.375L22.1 8.6C22.2333 8.81667 22.275 9.05 22.225 9.3C22.175 9.55 22.05 9.75 21.85 9.9L19.975 11.325C19.9917 11.4417 20 11.554 20 11.662V12.337C20 12.4457 19.9833 12.5583 19.95 12.675L21.825 14.1C22.025 14.25 22.15 14.45 22.2 14.7C22.25 14.95 22.2083 15.1833 22.075 15.4L20.225 18.6C20.0917 18.8167 19.9043 18.9627 19.663 19.038C19.421 19.1127 19.1833 19.1083 18.95 19.025L16.825 18.125C16.6417 18.2583 16.45 18.3833 16.25 18.5C16.05 18.6167 15.85 18.7167 15.65 18.8L15.35 21.125C15.3167 21.375 15.2083 21.5833 15.025 21.75C14.8417 21.9167 14.625 22 14.375 22ZM12.55 15.5C13.5167 15.5 14.3417 15.1583 15.025 14.475C15.7083 13.7917 16.05 12.9667 16.05 12C16.05 11.0333 15.7083 10.2083 15.025 9.525C14.3417 8.84167 13.5167 8.5 12.55 8.5C11.5667 8.5 10.7373 8.84167 10.062 9.525C9.38733 10.2083 9.05 11.0333 9.05 12C9.05 12.9667 9.38733 13.7917 10.062 14.475C10.7373 15.1583 11.5667 15.5 12.55 15.5Z" fill="#001C38"/>
</g>
</svg>
